<svg width="24" height="24" viewBox="0 0 24 24" fill="none" xmlns="http://www.w3.org/2000/svg">
<path opacity="0.1" fill-rule="evenodd" clip-rule="evenodd" d="M0 12C0 5.37258 5.37258 0 12 0C18.6274 0 24 5.37258 24 12C24 18.6274 18.6274 24 12 24C5.37258 24 0 18.6274 0 12Z" fill="white"/>
<path fill-rule="evenodd" clip-rule="evenodd" d="M18.4001 11.9911C18.4001 12.424 18.356 12.8562 18.2695 13.2775C18.1851 13.6888 18.0601 14.0926 17.8963 14.4786C17.7363 14.8578 17.5379 15.2232 17.306 15.564C17.0776 15.9026 16.8144 16.2203 16.5253 16.5099C16.2356 16.7982 15.9169 17.0606 15.5784 17.29C15.2365 17.5203 14.8706 17.7185 14.4912 17.8792C14.1046 18.0421 13.6999 18.1669 13.2889 18.2512C12.867 18.3379 12.4333 18.3822 11.9998 18.3822C11.566 18.3822 11.1323 18.3379 10.711 18.2512C10.2994 18.1669 9.89471 18.0421 9.50844 17.8792C9.12905 17.7185 8.76277 17.5203 8.42088 17.29C8.08243 17.0606 7.76366 16.7982 7.47458 16.5099C7.1852 16.2203 6.92205 15.9026 6.69329 15.564C6.46265 15.2232 6.26388 14.8578 6.10326 14.4786C5.93948 14.0926 5.81418 13.6888 5.72948 13.2775C5.64386 12.8562 5.6001 12.424 5.6001 11.9911C5.6001 11.558 5.64384 11.1248 5.72951 10.7045C5.8142 10.2932 5.9395 9.88872 6.10328 9.50333C6.2639 9.12387 6.46268 8.75814 6.69332 8.41734C6.92207 8.07845 7.18523 7.76137 7.47461 7.47146C7.76369 7.1831 8.08245 6.9213 8.42091 6.69225C8.76279 6.46099 9.12908 6.26285 9.50846 6.10181C9.89474 5.93857 10.2994 5.81345 10.711 5.72983C11.1323 5.64371 11.5661 5.60001 11.9998 5.60001C12.4333 5.60001 12.8671 5.64371 13.2889 5.72983C13.6999 5.81348 14.1046 5.9386 14.4912 6.10181C14.8706 6.26283 15.2366 6.46099 15.5784 6.69225C15.9169 6.9213 16.2357 7.1831 16.5254 7.47146C16.8144 7.76137 17.0776 8.07845 17.306 8.41734C17.5379 8.75814 17.7363 9.12389 17.8963 9.50333C18.0601 9.88872 18.1851 10.2932 18.2695 10.7045C18.356 11.1248 18.4001 11.558 18.4001 11.9911ZM9.66779 7.05454C8.14363 7.77325 7.00607 9.17566 6.65136 10.8658C6.79545 10.8671 9.07307 10.8958 11.6973 10.1995C10.7513 8.52124 9.74061 7.15162 9.66779 7.05454ZM12.1501 11.04C9.33589 11.8813 6.63543 11.8207 6.53856 11.817C6.53698 11.8757 6.53417 11.9324 6.53417 11.9911C6.53417 13.3932 7.06389 14.6714 7.93456 15.6379C7.93268 15.6351 9.4284 12.9854 12.3779 12.0329C12.4492 12.0092 12.5217 11.988 12.5936 11.9674C12.4564 11.6572 12.3067 11.3464 12.1501 11.04ZM15.6094 7.89495C14.6471 7.04767 13.3836 6.53373 11.9998 6.53373C11.5557 6.53373 11.1247 6.58741 10.7119 6.68664C10.7938 6.7965 11.8204 8.15647 12.7551 9.87031C14.8174 9.09827 15.5959 7.91491 15.6094 7.89495ZM12.9661 12.8718C12.9539 12.8758 12.9418 12.8793 12.9299 12.8836C9.70507 14.0062 8.65196 16.2686 8.64057 16.2933C9.56845 17.0138 10.7323 17.4485 11.9998 17.4485C12.7567 17.4485 13.4777 17.2946 14.1337 17.016C14.0527 16.5392 13.7352 14.8678 12.9661 12.8718ZM15.054 16.5173C16.2812 15.6904 17.1528 14.3772 17.396 12.8561C17.2835 12.8199 15.7543 12.3366 13.9902 12.619C14.7071 14.5863 14.9984 16.1884 15.054 16.5173ZM13.1758 10.6836C13.3027 10.9438 13.4255 11.2087 13.539 11.475C13.5793 11.5705 13.6187 11.6641 13.6571 11.7577C15.5347 11.5218 17.3845 11.9187 17.4635 11.9349C17.451 10.6411 16.9876 9.4537 16.2207 8.52407C16.2104 8.53871 15.3338 9.80352 13.1758 10.6836Z" fill="white"/>
</svg>
